<mxfile host="app.diagrams.net" agent="Mozilla/5.0 (X11; Linux x86_64; rv:132.0) Gecko/20100101 Firefox/132.0" scale="1" border="0" version="24.7.12">
  <diagram name="Page-1" id="5f0bae14-7c28-e335-631c-24af17079c00">
    <mxGraphModel dx="989" dy="1368" grid="1" gridSize="10" guides="1" tooltips="1" connect="1" arrows="1" fold="1" page="1" pageScale="1" pageWidth="1100" pageHeight="850" background="none" math="0" shadow="0">
      <root>
        <mxCell id="0" />
        <mxCell id="1" parent="0" />
        <mxCell id="j04bA0JASIezEfK0GSP5-2" value="" style="rounded=0;orthogonalLoop=1;jettySize=auto;html=1;endArrow=halfCircle;endFill=0;endSize=6;strokeWidth=1;sketch=0;fontSize=12;exitX=1;exitY=0.75;exitDx=0;exitDy=0;edgeStyle=orthogonalEdgeStyle;entryX=0;entryY=0.5;entryDx=0;entryDy=0;" parent="1" source="j04bA0JASIezEfK0GSP5-18" edge="1" target="j04bA0JASIezEfK0GSP5-43">
          <mxGeometry relative="1" as="geometry">
            <mxPoint x="595" y="-315" as="sourcePoint" />
            <mxPoint x="518" y="-260" as="targetPoint" />
          </mxGeometry>
        </mxCell>
        <mxCell id="j04bA0JASIezEfK0GSP5-3" value="" style="ellipse;whiteSpace=wrap;html=1;align=center;aspect=fixed;fillColor=none;strokeColor=none;resizable=0;perimeter=centerPerimeter;rotatable=0;allowArrows=0;points=[];outlineConnect=1;" parent="1" vertex="1">
          <mxGeometry x="570" y="-320" width="10" height="10" as="geometry" />
        </mxCell>
        <mxCell id="j04bA0JASIezEfK0GSP5-4" value="&lt;div&gt;«component»&lt;/div&gt;&lt;div&gt;&lt;b&gt;Servidor Web&lt;/b&gt;&lt;br&gt;&lt;/div&gt;" style="html=1;rounded=0;shadow=0;comic=0;labelBackgroundColor=none;strokeWidth=1;fontFamily=Verdana;fontSize=12;align=center;" parent="1" vertex="1">
          <mxGeometry x="610" y="-360" width="140" height="55" as="geometry" />
        </mxCell>
        <mxCell id="j04bA0JASIezEfK0GSP5-18" value="&lt;div&gt;«component»&lt;/div&gt;&lt;div&gt;&lt;b&gt;Web UI&lt;/b&gt;&lt;br&gt;&lt;/div&gt;" style="html=1;rounded=0;shadow=0;comic=0;labelBackgroundColor=none;strokeWidth=1;fontFamily=Verdana;fontSize=12;align=center;" parent="1" vertex="1">
          <mxGeometry x="300" y="-355" width="130" height="50" as="geometry" />
        </mxCell>
        <mxCell id="j04bA0JASIezEfK0GSP5-45" value="" style="edgeStyle=elbowEdgeStyle;rounded=0;html=1;labelBackgroundColor=none;startArrow=none;startFill=0;startSize=8;endArrow=none;endFill=0;endSize=16;fontFamily=Verdana;fontSize=12;entryX=0;entryY=0.75;entryDx=0;entryDy=0;" parent="1" source="j04bA0JASIezEfK0GSP5-43" target="j04bA0JASIezEfK0GSP5-4" edge="1">
          <mxGeometry relative="1" as="geometry">
            <mxPoint x="410" y="-500" as="sourcePoint" />
            <mxPoint x="460" y="-350" as="targetPoint" />
            <Array as="points" />
          </mxGeometry>
        </mxCell>
        <mxCell id="j04bA0JASIezEfK0GSP5-42" value="" style="group" parent="1" vertex="1" connectable="0">
          <mxGeometry x="470" y="-310" width="100" height="50" as="geometry" />
        </mxCell>
        <mxCell id="j04bA0JASIezEfK0GSP5-43" value="" style="ellipse;whiteSpace=wrap;html=1;rounded=0;shadow=0;comic=0;labelBackgroundColor=none;strokeWidth=1;fontFamily=Verdana;fontSize=12;align=center;" parent="j04bA0JASIezEfK0GSP5-42" vertex="1">
          <mxGeometry x="50" y="30" width="20" height="20" as="geometry" />
        </mxCell>
        <mxCell id="j04bA0JASIezEfK0GSP5-30" value="POST resultados" style="text;html=1;align=center;verticalAlign=middle;whiteSpace=wrap;rounded=0;" parent="j04bA0JASIezEfK0GSP5-42" vertex="1">
          <mxGeometry x="20" y="-5" width="80" height="30" as="geometry" />
        </mxCell>
        <mxCell id="4UWusVPtcx5rwWdA8fh--11" value="" style="rounded=0;orthogonalLoop=1;jettySize=auto;html=1;endArrow=halfCircle;endFill=0;endSize=6;strokeWidth=1;sketch=0;fontSize=12;exitX=1;exitY=0.25;exitDx=0;exitDy=0;edgeStyle=orthogonalEdgeStyle;entryX=0;entryY=0.5;entryDx=0;entryDy=0;" edge="1" parent="1" target="4UWusVPtcx5rwWdA8fh--15" source="j04bA0JASIezEfK0GSP5-18">
          <mxGeometry relative="1" as="geometry">
            <mxPoint x="430" y="-357.5" as="sourcePoint" />
            <mxPoint x="518" y="-387.5" as="targetPoint" />
          </mxGeometry>
        </mxCell>
        <mxCell id="4UWusVPtcx5rwWdA8fh--12" value="" style="ellipse;whiteSpace=wrap;html=1;align=center;aspect=fixed;fillColor=none;strokeColor=none;resizable=0;perimeter=centerPerimeter;rotatable=0;allowArrows=0;points=[];outlineConnect=1;" vertex="1" parent="1">
          <mxGeometry x="570" y="-447.5" width="10" height="10" as="geometry" />
        </mxCell>
        <mxCell id="4UWusVPtcx5rwWdA8fh--13" value="" style="edgeStyle=elbowEdgeStyle;rounded=0;html=1;labelBackgroundColor=none;startArrow=none;startFill=0;startSize=8;endArrow=none;endFill=0;endSize=16;fontFamily=Verdana;fontSize=12;entryX=0;entryY=0.25;entryDx=0;entryDy=0;" edge="1" parent="1" source="4UWusVPtcx5rwWdA8fh--15" target="j04bA0JASIezEfK0GSP5-4">
          <mxGeometry relative="1" as="geometry">
            <mxPoint x="410" y="-627.5" as="sourcePoint" />
            <mxPoint x="619.9999999999998" y="-355" as="targetPoint" />
            <Array as="points" />
          </mxGeometry>
        </mxCell>
        <mxCell id="4UWusVPtcx5rwWdA8fh--14" value="" style="group" vertex="1" connectable="0" parent="1">
          <mxGeometry x="470" y="-420" width="110" height="50" as="geometry" />
        </mxCell>
        <mxCell id="4UWusVPtcx5rwWdA8fh--15" value="" style="ellipse;whiteSpace=wrap;html=1;rounded=0;shadow=0;comic=0;labelBackgroundColor=none;strokeWidth=1;fontFamily=Verdana;fontSize=12;align=center;" vertex="1" parent="4UWusVPtcx5rwWdA8fh--14">
          <mxGeometry x="50" y="30" width="20" height="20" as="geometry" />
        </mxCell>
        <mxCell id="4UWusVPtcx5rwWdA8fh--16" value="&lt;div&gt;GET&lt;/div&gt;&lt;div&gt;datos históricos&lt;br&gt;&lt;/div&gt;" style="text;html=1;align=center;verticalAlign=middle;whiteSpace=wrap;rounded=0;" vertex="1" parent="4UWusVPtcx5rwWdA8fh--14">
          <mxGeometry x="10" y="-5" width="100" height="30" as="geometry" />
        </mxCell>
      </root>
    </mxGraphModel>
  </diagram>
</mxfile>
